<svg width="650" height="512" viewBox="0 0 650 512" fill="none" xmlns="http://www.w3.org/2000/svg">
<path d="M596.452 244.769V226.577C596.452 224.86 596.114 223.159 595.457 221.572C594.799 219.985 593.836 218.543 592.621 217.329C591.407 216.114 589.965 215.151 588.378 214.494C586.791 213.836 585.09 213.498 583.373 213.498H537.207C535.489 213.498 533.788 213.16 532.201 212.502C530.614 211.845 529.173 210.882 527.958 209.667C526.744 208.453 525.78 207.011 525.123 205.424C524.465 203.837 524.127 202.136 524.127 200.419V182.227C524.127 178.758 525.505 175.432 527.958 172.979C530.411 170.526 533.738 169.148 537.207 169.148H538.664C540.382 169.148 542.083 168.81 543.67 168.152C545.256 167.495 546.698 166.532 547.913 165.317C549.127 164.102 550.091 162.661 550.748 161.074C551.405 159.487 551.744 157.786 551.744 156.068V137.877C551.744 134.408 550.366 131.082 547.913 128.629C545.46 126.176 542.133 124.798 538.664 124.798H166.757C165.039 124.798 163.339 125.136 161.752 125.793C160.165 126.451 158.723 127.414 157.509 128.629C156.294 129.843 155.331 131.285 154.673 132.872C154.016 134.459 153.678 136.16 153.678 137.877V156.068C153.678 157.786 154.016 159.487 154.673 161.074C155.331 162.661 156.294 164.102 157.509 165.317C158.723 166.532 160.165 167.495 161.752 168.152C163.339 168.81 165.039 169.148 166.757 169.148C170.226 169.148 173.553 170.526 176.006 172.979C178.459 175.432 179.837 178.758 179.837 182.227V200.419C179.837 202.136 179.498 203.837 178.841 205.424C178.184 207.011 177.22 208.453 176.006 209.667C174.791 210.882 173.349 211.845 171.762 212.502C170.176 213.16 168.475 213.498 166.757 213.498H116.178C114.46 213.498 112.759 213.836 111.172 214.494C109.586 215.151 108.144 216.114 106.929 217.329C105.715 218.543 104.751 219.985 104.094 221.572C103.437 223.159 103.098 224.86 103.098 226.577V244.769C103.098 248.237 104.476 251.564 106.929 254.017C109.382 256.47 112.709 257.848 116.178 257.848H136.024C139.493 257.848 142.82 259.226 145.273 261.679C147.726 264.132 149.104 267.459 149.104 270.928V289.119C149.104 292.588 147.726 295.914 145.273 298.367C142.82 300.82 139.493 302.198 136.024 302.198H135.976C134.259 302.198 132.558 302.537 130.971 303.194C129.384 303.851 127.942 304.815 126.728 306.029C125.513 307.244 124.55 308.686 123.892 310.272C123.235 311.859 122.897 313.56 122.897 315.278V333.469C122.897 335.186 123.235 336.887 123.892 338.474C124.55 340.061 125.513 341.503 126.728 342.717C127.942 343.932 129.384 344.895 130.971 345.553C132.558 346.21 134.259 346.548 135.976 346.548H138.848C140.565 346.548 142.266 346.886 143.853 347.544C145.44 348.201 146.882 349.165 148.096 350.379C149.311 351.594 150.274 353.035 150.932 354.622C151.589 356.209 151.927 357.91 151.927 359.628V377.819C151.927 379.536 151.589 381.237 150.932 382.824C150.274 384.411 149.311 385.853 148.096 387.067C146.882 388.282 145.44 389.245 143.853 389.903C142.266 390.56 140.565 390.898 138.848 390.898H91.7232C88.2543 390.898 84.9275 392.276 82.4747 394.729C80.0218 397.182 78.6438 400.509 78.6438 403.978V422.169C78.6438 423.887 78.9821 425.587 79.6394 427.174C80.2967 428.761 81.2601 430.203 82.4746 431.418C83.6892 432.632 85.131 433.596 86.7179 434.253C88.3048 434.91 90.0056 435.248 91.7232 435.248H545.686C549.155 435.248 552.482 433.87 554.935 431.418C557.388 428.965 558.766 425.638 558.766 422.169V403.978C558.766 400.509 557.388 397.182 554.935 394.729C552.482 392.276 549.155 390.898 545.686 390.898H534.346C532.628 390.898 530.927 390.56 529.34 389.903C527.754 389.245 526.312 388.282 525.097 387.067C523.883 385.853 522.919 384.411 522.262 382.824C521.605 381.237 521.266 379.536 521.266 377.819V359.628C521.266 357.91 521.605 356.209 522.262 354.622C522.919 353.035 523.883 351.594 525.097 350.379C526.312 349.165 527.754 348.201 529.34 347.544C530.927 346.886 532.628 346.548 534.346 346.548H561.086C564.554 346.548 567.881 345.17 570.334 342.717C572.787 340.264 574.165 336.938 574.165 333.469V315.278C574.165 313.56 573.827 311.859 573.169 310.272C572.512 308.686 571.549 307.244 570.334 306.029C569.12 304.815 567.678 303.851 566.091 303.194C564.504 302.537 562.803 302.198 561.086 302.198H552.974C549.505 302.198 546.178 300.82 543.725 298.367C541.273 295.914 539.894 292.588 539.894 289.119V270.928C539.894 267.459 541.273 264.132 543.725 261.679C546.178 259.226 549.505 257.848 552.974 257.848H583.373C585.09 257.848 586.791 257.51 588.378 256.852C589.965 256.195 591.407 255.232 592.621 254.017C593.836 252.803 594.799 251.361 595.457 249.774C596.114 248.187 596.452 246.486 596.452 244.769Z" fill="#DBE8EC"/>
<path d="M426.334 137.873C426.33 145.701 423.22 153.207 417.686 158.744C412.152 164.28 404.648 167.393 396.82 167.4H286.535C280.92 167.401 275.504 165.326 271.327 161.574C267.15 157.823 264.507 152.659 263.907 147.077C263.307 141.495 264.791 135.888 268.075 131.334C271.359 126.78 276.211 123.601 281.697 122.408C282.136 115.765 285.082 109.537 289.939 104.984C294.796 100.431 301.201 97.8934 307.859 97.8844C310.555 97.8846 313.233 98.3126 315.795 99.1523C319.681 91.6353 325.777 85.4887 333.261 81.5396C340.745 77.5904 349.259 76.0281 357.658 77.0628C366.057 78.0975 373.938 81.6795 380.24 87.3271C386.542 92.9746 390.963 100.417 392.909 108.652C397.076 108.089 401.316 108.424 405.343 109.635C409.37 110.846 413.092 112.904 416.258 115.672C419.424 118.44 421.961 121.853 423.699 125.682C425.437 129.511 426.335 133.668 426.334 137.873Z" fill="#B9D4DB"/>
<path d="M436.633 374.643L221.884 374.29C218.44 374.293 215.135 372.927 212.697 370.494C210.26 368.06 208.888 364.758 208.885 361.313L183.12 221.232C183.117 217.788 184.483 214.483 186.916 212.045C189.35 209.607 192.652 208.236 196.097 208.233H315.139C315.736 208.233 344.65 244.993 345.226 245.07C353.258 246.153 474.565 268.891 471.396 276.35L449.609 361.645C449.612 365.089 448.247 368.394 445.813 370.831C443.38 373.269 440.077 374.64 436.633 374.643Z" fill="#E59413"/>
<path d="M198.15 332.529H259.993V268.14H188.923C187.397 268.14 185.89 268.48 184.512 269.137C183.134 269.793 181.919 270.749 180.958 271.934C179.996 273.119 179.31 274.504 178.952 275.987C178.593 277.471 178.57 279.016 178.884 280.509L188.11 324.382C188.595 326.686 189.857 328.753 191.685 330.236C193.513 331.72 195.795 332.529 198.15 332.529Z" fill="#409CB5"/>
<path d="M283.364 237.373C283.231 225.841 284.309 214.326 286.581 203.018C288.81 191.659 292.514 180.64 297.598 170.241C300.166 165.033 303.175 160.054 306.591 155.358C310.01 150.624 313.968 146.302 318.384 142.481C322.838 138.624 327.851 135.464 333.252 133.11C338.741 130.761 344.641 129.521 350.611 129.461C356.581 129.402 362.504 130.524 368.038 132.762C373.541 135.025 378.669 138.108 383.247 141.907C387.798 145.679 391.895 149.966 395.457 154.683C399.019 159.364 402.173 164.341 404.886 169.559C410.266 179.99 414.26 191.079 416.767 202.545C419.322 213.982 420.668 225.655 420.785 237.373H414.785C414.918 226.052 413.862 214.749 411.634 203.649C409.46 192.544 405.844 181.772 400.878 171.604C398.389 166.55 395.472 161.717 392.159 157.16C388.876 152.608 385.076 148.453 380.835 144.778C376.619 141.122 371.875 138.124 366.763 135.887C361.634 133.685 356.12 132.521 350.538 132.461C344.957 132.402 339.419 133.448 334.244 135.54C329.03 137.684 324.171 140.605 319.831 144.204C315.455 147.829 311.515 151.95 308.09 156.484C304.632 161.027 301.569 165.857 298.935 170.923C293.673 181.122 289.766 191.965 287.315 203.176C284.804 214.405 283.48 225.867 283.364 237.373Z" fill="#409CB5"/>
<path d="M443.595 374.454L221.765 374.642C218.321 374.645 215.016 373.28 212.578 370.846C210.141 368.413 208.77 365.11 208.767 361.666L244.54 214.547C244.537 211.102 245.903 207.797 248.337 205.36C250.77 202.922 254.073 201.551 257.517 201.548L331.29 201.485C333.375 201.484 335.43 201.984 337.281 202.944C339.132 203.904 340.725 205.296 341.924 207.002L354.326 239.224C355.526 240.93 357.119 242.321 358.97 243.282C360.821 244.242 362.876 244.742 364.961 244.74L479.383 244.652C482.828 244.649 486.132 246.015 488.57 248.448C491.008 250.882 492.379 254.184 492.382 257.629L456.572 361.456C456.574 364.9 455.209 368.205 452.775 370.643C450.342 373.08 447.039 374.451 443.595 374.454Z" fill="#F9AE2B"/>
<path d="M274.279 272.241H444.404" stroke="#EE781D" stroke-width="5" stroke-miterlimit="10"/>
<path d="M259.993 305.988H430.118" stroke="#EE781D" stroke-width="5" stroke-miterlimit="10"/>
<path d="M242.226 340.904H412.351" stroke="#EE781D" stroke-width="5" stroke-miterlimit="10"/>
<path d="M375.483 308.949L418.192 272.852C418.565 272.536 419.021 272.334 419.506 272.269C419.991 272.204 420.484 272.279 420.927 272.484C421.371 272.69 421.746 273.019 422.009 273.431C422.272 273.843 422.412 274.322 422.412 274.811V279.493C422.412 280.173 422.682 280.825 423.163 281.306C423.644 281.787 424.297 282.057 424.977 282.057H484.04L533.897 275.099V346.447H424.977C424.297 346.447 423.644 346.717 423.163 347.198C422.682 347.679 422.412 348.331 422.412 349.011V352.492C422.412 352.996 422.263 353.489 421.985 353.91C421.706 354.33 421.309 354.659 420.845 354.855C420.38 355.051 419.868 355.106 419.372 355.012C418.877 354.919 418.42 354.681 418.058 354.329L375.349 312.745C375.093 312.495 374.891 312.195 374.758 311.863C374.625 311.531 374.562 311.175 374.575 310.817C374.588 310.46 374.675 310.109 374.831 309.787C374.987 309.465 375.209 309.18 375.483 308.949Z" fill="#409CB5"/>
<path d="M484.04 282.057H526.938C528.784 282.057 530.554 281.324 531.859 280.019C533.164 278.714 533.897 276.944 533.897 275.098C533.897 273.253 533.164 271.483 531.859 270.178C530.554 268.873 528.784 268.14 526.938 268.14H488.757L484.04 282.057Z" fill="#3086A3"/>
<path d="M432.804 223.476C432.008 225.133 431.1 226.734 430.086 228.268C429.099 229.783 428.046 231.234 426.956 232.647C425.865 234.059 424.722 235.419 423.547 236.747C422.372 238.075 421.148 239.355 419.906 240.615L417.789 242.761L415.664 240.615C414.418 239.358 413.195 238.078 412.018 236.752C410.845 235.422 409.696 234.068 408.607 232.653C407.517 231.24 406.464 229.79 405.478 228.273C404.465 226.738 403.559 225.135 402.766 223.476C404.425 224.268 406.028 225.175 407.563 226.188C409.08 227.174 410.53 228.227 411.943 229.317C413.358 230.406 414.712 231.555 416.042 232.728C417.368 233.905 418.648 235.128 419.905 236.374H415.664C416.924 235.131 418.205 233.908 419.532 232.733C420.86 231.558 422.22 230.414 423.632 229.323C425.046 228.233 426.496 227.18 428.012 226.193C429.545 225.179 431.146 224.271 432.804 223.476Z" fill="#409CB5"/>
<path d="M294.208 167.401H309.328C309.328 167.401 362.068 141.683 342.808 124.943C323.548 108.203 294.208 167.401 294.208 167.401Z" fill="#B9D4DB"/>
<path d="M256.588 137.873H217.767C215.38 137.873 213.091 138.821 211.403 140.509C209.715 142.197 208.767 144.486 208.767 146.873V158.4C208.767 160.787 207.818 163.076 206.131 164.764C204.443 166.452 202.154 167.4 199.767 167.4H131.668C129.281 167.4 126.992 168.348 125.304 170.036C123.616 171.724 122.668 174.013 122.668 176.4V187.222C122.668 189.609 121.72 191.898 120.032 193.586C118.344 195.274 116.055 196.222 113.668 196.222H96.3879C94.001 196.222 91.7118 195.274 90.024 193.586C88.3361 191.898 87.3879 189.609 87.3879 187.222V164.182C87.3879 161.795 86.4397 159.506 84.7519 157.818C83.064 156.13 80.7749 155.182 78.3879 155.182H62.5479C60.161 155.182 57.8718 156.13 56.184 157.818C54.4961 159.506 53.5479 161.795 53.5479 164.182V206.26C53.5479 208.646 54.4961 210.936 56.184 212.623C57.8718 214.311 60.161 215.26 62.5479 215.26C64.9349 215.26 67.224 216.208 68.9119 217.896C70.5997 219.583 71.5479 221.873 71.5479 224.26V246.82C71.5479 249.206 72.4961 251.496 74.184 253.183C75.8718 254.871 78.161 255.82 80.5479 255.82H89.9079C92.2949 255.82 94.584 256.768 96.2719 258.456C97.9597 260.143 98.9079 262.433 98.9079 264.82V266.098C98.9079 268.485 99.8561 270.774 101.544 272.462C103.232 274.15 105.521 275.098 107.908 275.098H165.148" stroke="#409CB5" stroke-width="2" stroke-miterlimit="10"/>
<path d="M426.334 137.873H459.276C460.315 137.873 461.344 137.669 462.304 137.271C463.264 136.874 464.136 136.291 464.871 135.556C465.605 134.822 466.188 133.949 466.586 132.99C466.983 132.03 467.188 131.001 467.188 129.962V84.6634C467.188 82.5652 468.021 80.5529 469.505 79.0692C470.989 77.5855 473.001 76.752 475.099 76.752H504.636C506.735 76.752 508.747 77.5855 510.231 79.0692C511.714 80.5529 512.548 82.5652 512.548 84.6634V169.902C512.548 172.001 513.381 174.013 514.865 175.497C516.349 176.98 518.361 177.814 520.459 177.814H535.956C536.995 177.814 538.024 178.019 538.984 178.416C539.944 178.814 540.816 179.396 541.551 180.131C542.285 180.866 542.868 181.738 543.266 182.698C543.663 183.658 543.868 184.686 543.868 185.725V193.574C543.868 194.613 543.663 195.642 543.266 196.602C542.868 197.562 542.285 198.434 541.551 199.169C540.816 199.903 539.944 200.486 538.984 200.884C538.024 201.281 536.995 201.486 535.956 201.486H484.819C482.721 201.486 480.709 202.319 479.225 203.803C477.741 205.287 476.908 207.299 476.908 209.397V213.465C476.908 215.563 477.741 217.576 479.225 219.059C480.709 220.543 482.721 221.377 484.819 221.377H571.596C572.635 221.377 573.664 221.581 574.624 221.979C575.584 222.376 576.456 222.959 577.191 223.694C577.925 224.428 578.508 225.301 578.906 226.26C579.303 227.22 579.508 228.249 579.508 229.288V264.33C579.508 266.428 578.674 268.44 577.191 269.924C575.707 271.408 573.695 272.241 571.596 272.241H560.419C558.321 272.241 556.309 273.075 554.825 274.559C553.341 276.042 552.508 278.055 552.508 280.153C552.508 282.251 553.341 284.263 554.825 285.747C556.309 287.231 558.321 288.064 560.419 288.064H581.316C582.355 288.064 583.384 288.269 584.344 288.666C585.304 289.064 586.176 289.647 586.911 290.381C587.645 291.116 588.228 291.988 588.626 292.948C589.023 293.908 589.228 294.937 589.228 295.976V315.391C589.228 317.489 588.394 319.502 586.911 320.985C585.427 322.469 583.415 323.303 581.316 323.303H533.897" stroke="#409CB5" stroke-width="2" stroke-miterlimit="10"/>
<path d="M95.2201 371.724C104.65 371.724 112.294 364.079 112.294 354.649C112.294 345.22 104.65 337.575 95.2201 337.575C85.7903 337.575 78.1459 345.22 78.1459 354.649C78.1459 364.079 85.7903 371.724 95.2201 371.724Z" fill="#B9D4DB"/>
<path d="M110.053 387.358C113.073 387.358 115.522 384.909 115.522 381.889C115.522 378.868 113.073 376.42 110.053 376.42C107.032 376.42 104.584 378.868 104.584 381.889C104.584 384.909 107.032 387.358 110.053 387.358Z" fill="#B9D4DB"/>
<path d="M141.351 384.932C147.33 384.932 152.177 380.085 152.177 374.105C152.177 368.126 147.33 363.279 141.351 363.279C135.372 363.279 130.525 368.126 130.525 374.105C130.525 380.085 135.372 384.932 141.351 384.932Z" fill="#B9D4DB"/>
<path d="M133.456 352.208C138.89 352.208 143.295 347.803 143.295 342.369C143.295 336.934 138.89 332.529 133.456 332.529C128.022 332.529 123.616 336.934 123.616 342.369C123.616 347.803 128.022 352.208 133.456 352.208Z" fill="#B9D4DB"/>
<path d="M535.448 142.861C544.878 142.861 552.522 135.217 552.522 125.787C552.522 116.357 544.878 108.713 535.448 108.713C526.018 108.713 518.374 116.357 518.374 125.787C518.374 135.217 526.018 142.861 535.448 142.861Z" fill="#B9D4DB"/>
<path d="M529.983 161.786C533.003 161.786 535.452 159.338 535.452 156.317C535.452 153.297 533.003 150.849 529.983 150.849C526.963 150.849 524.514 153.297 524.514 156.317C524.514 159.338 526.963 161.786 529.983 161.786Z" fill="#B9D4DB"/>
<path d="M559.271 180.648C565.25 180.648 570.097 175.801 570.097 169.822C570.097 163.843 565.25 158.996 559.271 158.996C553.292 158.996 548.445 163.843 548.445 169.822C548.445 175.801 553.292 180.648 559.271 180.648Z" fill="#B9D4DB"/>
<path d="M572.962 149.962C578.396 149.962 582.802 145.557 582.802 140.122C582.802 134.688 578.396 130.283 572.962 130.283C567.528 130.283 563.123 134.688 563.123 140.122C563.123 145.557 567.528 149.962 572.962 149.962Z" fill="#B9D4DB"/>
<path d="M498.263 397.053C507.693 397.053 515.337 389.408 515.337 379.978C515.337 370.549 507.693 362.904 498.263 362.904C488.833 362.904 481.189 370.549 481.189 379.978C481.189 389.408 488.833 397.053 498.263 397.053Z" fill="#B9D4DB"/>
<path d="M481.188 421.058C484.209 421.058 486.657 418.609 486.657 415.589C486.657 412.569 484.209 410.12 481.188 410.12C478.168 410.12 475.719 412.569 475.719 415.589C475.719 418.609 478.168 421.058 481.188 421.058Z" fill="#B9D4DB"/>
<path d="M515.338 431.884C521.317 431.884 526.164 427.037 526.164 421.058C526.164 415.078 521.317 410.231 515.338 410.231C509.359 410.231 504.512 415.078 504.512 421.058C504.512 427.037 509.359 431.884 515.338 431.884Z" fill="#B9D4DB"/>
<path d="M531.081 399.658C536.516 399.658 540.921 395.253 540.921 389.819C540.921 384.385 536.516 379.979 531.081 379.979C525.647 379.979 521.242 384.385 521.242 389.819C521.242 395.253 525.647 399.658 531.081 399.658Z" fill="#B9D4DB"/>
<path d="M93.4611 131.183C97.6085 131.183 97.6085 137.183 101.756 137.183C105.902 137.183 105.902 131.183 110.048 131.183C114.197 131.183 114.197 137.183 118.346 137.183C122.495 137.183 122.495 131.183 126.644 131.183" stroke="#409CB5" stroke-width="3" stroke-miterlimit="10" stroke-linecap="round"/>
<path d="M93.4611 141.681C97.6085 141.681 97.6085 147.681 101.756 147.681C105.902 147.681 105.902 141.681 110.048 141.681C114.197 141.681 114.197 147.681 118.346 147.681C122.495 147.681 122.495 141.681 126.644 141.681" stroke="#409CB5" stroke-width="3" stroke-miterlimit="10" stroke-linecap="round"/>
<path d="M93.4611 152.179C97.6085 152.179 97.6085 158.179 101.756 158.179C105.902 158.179 105.902 152.179 110.048 152.179C114.197 152.179 114.197 158.179 118.346 158.179C122.495 158.179 122.495 152.179 126.644 152.179" stroke="#409CB5" stroke-width="3" stroke-miterlimit="10" stroke-linecap="round"/>
<path d="M556.371 337.575C560.518 337.575 560.518 343.575 564.666 343.575C568.812 343.575 568.812 337.575 572.958 337.575C577.107 337.575 577.107 343.575 581.256 343.575C585.405 343.575 585.405 337.575 589.554 337.575" stroke="#409CB5" stroke-width="3" stroke-miterlimit="10" stroke-linecap="round"/>
<path d="M556.371 348.073C560.518 348.073 560.518 354.073 564.666 354.073C568.812 354.073 568.812 348.073 572.958 348.073C577.107 348.073 577.107 354.073 581.256 354.073C585.405 354.073 585.405 348.073 589.554 348.073" stroke="#409CB5" stroke-width="3" stroke-miterlimit="10" stroke-linecap="round"/>
<path d="M556.371 358.571C560.518 358.571 560.518 364.571 564.666 364.571C568.812 364.571 568.812 358.571 572.958 358.571C577.107 358.571 577.107 364.571 581.256 364.571C585.405 364.571 585.405 358.571 589.554 358.571" stroke="#409CB5" stroke-width="3" stroke-miterlimit="10" stroke-linecap="round"/>
<path d="M239.996 391.735C244.144 391.735 244.144 397.735 248.291 397.735C252.437 397.735 252.437 391.735 256.584 391.735C260.733 391.735 260.733 397.735 264.882 397.735C269.031 397.735 269.031 391.735 273.18 391.735" stroke="#409CB5" stroke-width="3" stroke-miterlimit="10" stroke-linecap="round"/>
<path d="M239.996 402.233C244.144 402.233 244.144 408.233 248.291 408.233C252.437 408.233 252.437 402.233 256.584 402.233C260.733 402.233 260.733 408.233 264.882 408.233C269.031 408.233 269.031 402.233 273.18 402.233" stroke="#409CB5" stroke-width="3" stroke-miterlimit="10" stroke-linecap="round"/>
<path d="M239.996 412.731C244.144 412.731 244.144 418.731 248.291 418.731C252.437 418.731 252.437 412.731 256.584 412.731C260.733 412.731 260.733 418.731 264.882 418.731C269.031 418.731 269.031 412.731 273.18 412.731" stroke="#409CB5" stroke-width="3" stroke-miterlimit="10" stroke-linecap="round"/>
</svg>
