<svg width="650" height="512" viewBox="0 0 650 512" fill="none" xmlns="http://www.w3.org/2000/svg">
<path d="M568.904 220.745V202.554C568.904 199.085 567.526 195.758 565.073 193.305C562.62 190.853 559.294 189.475 555.825 189.475H509.659C507.941 189.475 506.24 189.136 504.653 188.479C503.067 187.822 501.625 186.858 500.41 185.644C499.196 184.429 498.232 182.987 497.575 181.4C496.918 179.814 496.579 178.113 496.579 176.395V158.204C496.579 156.486 496.918 154.786 497.575 153.199C498.232 151.612 499.196 150.17 500.41 148.955C501.625 147.741 503.067 146.777 504.653 146.12C506.24 145.463 507.941 145.124 509.659 145.124H511.116C514.585 145.124 517.912 143.746 520.365 141.294C522.818 138.841 524.196 135.514 524.196 132.045V113.854C524.196 110.385 522.818 107.058 520.365 104.605C517.912 102.152 514.585 100.774 511.116 100.774H169.209C165.74 100.774 162.413 102.152 159.961 104.605C157.508 107.058 156.13 110.385 156.13 113.854V132.045C156.13 135.514 157.508 138.841 159.961 141.294C162.413 143.746 165.74 145.124 169.209 145.124C172.678 145.124 176.005 146.502 178.458 148.955C180.911 151.408 182.289 154.735 182.289 158.204V176.395C182.289 179.864 180.911 183.191 178.458 185.644C176.005 188.097 172.678 189.475 169.209 189.475H118.63C115.161 189.475 111.834 190.853 109.381 193.305C106.928 195.758 105.55 199.085 105.55 202.554V220.745C105.55 224.214 106.928 227.541 109.381 229.994C111.834 232.447 115.161 233.825 118.63 233.825H138.476C140.194 233.825 141.895 234.163 143.482 234.82C145.069 235.478 146.51 236.441 147.725 237.655C148.939 238.87 149.903 240.312 150.56 241.899C151.218 243.486 151.556 245.186 151.556 246.904V265.095C151.556 266.813 151.218 268.514 150.56 270.101C149.903 271.687 148.939 273.129 147.725 274.344C146.51 275.558 145.069 276.522 143.482 277.179C141.895 277.836 140.194 278.175 138.476 278.175H138.428C134.96 278.175 131.633 279.553 129.18 282.006C126.727 284.459 125.349 287.785 125.349 291.254V309.445C125.349 311.163 125.687 312.864 126.345 314.451C127.002 316.037 127.965 317.479 129.18 318.694C130.394 319.908 131.836 320.872 133.423 321.529C135.01 322.186 136.711 322.525 138.428 322.525H141.3C144.769 322.525 148.096 323.903 150.548 326.356C153.001 328.809 154.379 332.135 154.379 335.604V353.795C154.379 357.264 153.001 360.591 150.548 363.044C148.096 365.497 144.769 366.875 141.3 366.875H94.1753C90.7064 366.875 87.3796 368.253 84.9267 370.706C82.4739 373.159 81.0958 376.485 81.0958 379.954V398.146C81.0958 401.614 82.4739 404.941 84.9267 407.394C87.3796 409.847 90.7064 411.225 94.1753 411.225H518.138C521.607 411.225 524.934 409.847 527.387 407.394C529.84 404.941 531.218 401.614 531.218 398.146V379.954C531.218 376.485 529.84 373.159 527.387 370.706C524.934 368.253 521.607 366.875 518.138 366.875H506.798C503.329 366.875 500.002 365.497 497.549 363.044C495.096 360.591 493.718 357.264 493.718 353.795V335.604C493.718 332.135 495.096 328.809 497.549 326.356C500.002 323.903 503.329 322.525 506.798 322.525H533.538C535.255 322.525 536.956 322.186 538.543 321.529C540.13 320.872 541.572 319.908 542.786 318.694C544.001 317.479 544.964 316.037 545.621 314.451C546.279 312.864 546.617 311.163 546.617 309.445V291.254C546.617 287.785 545.239 284.459 542.786 282.006C540.333 279.553 537.007 278.175 533.538 278.175H525.426C523.708 278.175 522.008 277.836 520.421 277.179C518.834 276.522 517.392 275.558 516.177 274.344C514.963 273.129 513.999 271.687 513.342 270.101C512.685 268.514 512.347 266.813 512.347 265.095V246.904C512.347 245.186 512.685 243.486 513.342 241.899C513.999 240.312 514.963 238.87 516.177 237.655C517.392 236.441 518.834 235.478 520.421 234.82C522.008 234.163 523.708 233.825 525.426 233.825H555.825C559.294 233.825 562.62 232.447 565.073 229.994C567.526 227.541 568.904 224.214 568.904 220.745Z" fill="#DBE8EC"/>
<path d="M377.401 231.797H217.561V377.237H377.401V231.797Z" fill="#409CB5"/>
<path d="M462.361 231.797H377.401V377.237H462.361V231.797Z" fill="#3086A3"/>
<path d="M462.361 232.157H377.401L406.502 192.464C406.781 192.083 407.145 191.774 407.565 191.561C407.986 191.348 408.45 191.237 408.922 191.237H486.442C486.996 191.237 487.54 191.391 488.012 191.681C488.485 191.971 488.867 192.387 489.118 192.881C489.368 193.376 489.477 193.93 489.432 194.482C489.387 195.035 489.189 195.564 488.861 196.011L462.361 232.157Z" fill="#25788E"/>
<path d="M217.956 232.157H302.916L273.815 192.464C273.537 192.083 273.172 191.774 272.752 191.561C272.332 191.348 271.867 191.237 271.396 191.237H193.876C193.321 191.237 192.778 191.391 192.305 191.681C191.833 191.971 191.45 192.387 191.2 192.881C190.949 193.376 190.84 193.93 190.886 194.482C190.931 195.035 191.128 195.564 191.456 196.011L217.956 232.157Z" fill="#3086A3"/>
<path d="M510.293 285.158L462.361 232.157V290.117H508.021C508.596 290.117 509.158 289.952 509.642 289.642C510.125 289.331 510.51 288.889 510.749 288.366C510.988 287.844 511.072 287.264 510.992 286.695C510.911 286.126 510.668 285.593 510.293 285.158Z" fill="#25788E"/>
<path d="M357.747 153.791H246.893V232.157H357.747V153.791Z" fill="#EE781D"/>
<path d="M299.08 236.995H268.582C267.993 236.995 267.415 236.84 266.905 236.546C266.395 236.251 265.972 235.828 265.677 235.318C265.383 234.808 265.228 234.23 265.228 233.641C265.228 233.052 265.383 232.474 265.677 231.964L280.926 205.552L296.175 179.14C296.47 178.63 296.893 178.207 297.403 177.912C297.913 177.618 298.491 177.463 299.08 177.463C299.668 177.463 300.247 177.618 300.757 177.912C301.267 178.207 301.69 178.63 301.984 179.14L317.233 205.552L332.482 231.964C332.777 232.474 332.932 233.052 332.932 233.641C332.932 234.23 332.777 234.808 332.482 235.318C332.188 235.828 331.765 236.251 331.255 236.546C330.745 236.84 330.166 236.995 329.578 236.995H299.08Z" fill="#DBE8EC"/>
<path d="M300.758 193.979C300.758 193.052 300.006 192.301 299.08 192.301C298.153 192.301 297.402 193.052 297.402 193.979V218.991C297.402 219.917 298.153 220.669 299.08 220.669C300.006 220.669 300.758 219.917 300.758 218.991V193.979Z" fill="#409CB5"/>
<path d="M303.074 227.631C303.293 225.424 301.681 223.459 299.475 223.24C297.269 223.022 295.304 224.633 295.085 226.839C294.867 229.046 296.478 231.011 298.684 231.23C300.89 231.448 302.856 229.837 303.074 227.631Z" fill="#409CB5"/>
<path d="M325.667 290.117H173.751C173.177 290.117 172.614 289.952 172.131 289.642C171.647 289.332 171.263 288.889 171.024 288.366C170.784 287.844 170.7 287.264 170.781 286.695C170.862 286.126 171.104 285.593 171.48 285.158L217.201 232.157H377.041L327.939 289.077C327.657 289.403 327.308 289.665 326.916 289.845C326.524 290.024 326.098 290.117 325.667 290.117Z" fill="#47ACC4"/>
<path d="M474.287 338.334C478.077 338.334 478.077 340.334 481.866 340.334C485.655 340.334 485.655 338.334 489.443 338.334C493.234 338.334 493.234 340.334 497.025 340.334C500.817 340.334 500.817 338.334 504.608 338.334" stroke="#B9D4DB" stroke-width="3" stroke-miterlimit="10" stroke-linecap="round"/>
<path d="M474.287 347.073C478.077 347.073 478.077 349.073 481.866 349.073C485.655 349.073 485.655 347.073 489.443 347.073C493.234 347.073 493.234 349.073 497.025 349.073C500.817 349.073 500.817 347.073 504.608 347.073" stroke="#B9D4DB" stroke-width="3" stroke-miterlimit="10" stroke-linecap="round"/>
<path d="M474.287 355.812C478.077 355.812 478.077 357.812 481.866 357.812C485.655 357.812 485.655 355.812 489.443 355.812C493.234 355.812 493.234 357.812 497.025 357.812C500.817 357.812 500.817 355.812 504.608 355.812" stroke="#B9D4DB" stroke-width="3" stroke-miterlimit="10" stroke-linecap="round"/>
<path d="M111.183 292.117C114.973 292.117 114.973 294.117 118.763 294.117C122.551 294.117 122.551 292.117 126.34 292.117C130.131 292.117 130.131 294.117 133.922 294.117C137.713 294.117 137.713 292.117 141.504 292.117" stroke="#B9D4DB" stroke-width="3" stroke-miterlimit="10" stroke-linecap="round"/>
<path d="M111.183 300.856C114.973 300.856 114.973 302.856 118.763 302.856C122.551 302.856 122.551 300.856 126.34 300.856C130.131 300.856 130.131 302.856 133.922 302.856C137.713 302.856 137.713 300.856 141.504 300.856" stroke="#B9D4DB" stroke-width="3" stroke-miterlimit="10" stroke-linecap="round"/>
<path d="M111.183 309.596C114.973 309.596 114.973 311.596 118.763 311.596C122.551 311.596 122.551 309.596 126.34 309.596C130.131 309.596 130.131 311.596 133.922 311.596C137.713 311.596 137.713 309.596 141.504 309.596" stroke="#B9D4DB" stroke-width="3" stroke-miterlimit="10" stroke-linecap="round"/>
<path d="M279.905 120.543C283.695 120.543 283.695 122.543 287.485 122.543C291.273 122.543 291.273 120.543 295.062 120.543C298.853 120.543 298.853 122.543 302.644 122.543C306.435 122.543 306.435 120.543 310.226 120.543" stroke="#B9D4DB" stroke-width="3" stroke-miterlimit="10" stroke-linecap="round"/>
<path d="M279.905 129.282C283.695 129.282 283.695 131.282 287.485 131.282C291.273 131.282 291.273 129.282 295.062 129.282C298.853 129.282 298.853 131.282 302.644 131.282C306.435 131.282 306.435 129.282 310.226 129.282" stroke="#B9D4DB" stroke-width="3" stroke-miterlimit="10" stroke-linecap="round"/>
<path d="M279.905 138.021C283.695 138.021 283.695 140.021 287.485 140.021C291.273 140.021 291.273 138.021 295.062 138.021C298.853 138.021 298.853 140.021 302.644 140.021C306.435 140.021 306.435 138.021 310.226 138.021" stroke="#B9D4DB" stroke-width="3" stroke-miterlimit="10" stroke-linecap="round"/>
<path d="M183.705 404.17C190.863 404.17 196.665 398.368 196.665 391.21C196.665 384.052 190.863 378.25 183.705 378.25C176.548 378.25 170.745 384.052 170.745 391.21C170.745 398.368 176.548 404.17 183.705 404.17Z" fill="#B9D4DB"/>
<path d="M193.109 363.745C196.821 363.745 199.829 360.736 199.829 357.025C199.829 353.313 196.821 350.305 193.109 350.305C189.398 350.305 186.389 353.313 186.389 357.025C186.389 360.736 189.398 363.745 193.109 363.745Z" fill="#B9D4DB"/>
<path d="M219.723 402.251C225.025 402.251 229.323 397.953 229.323 392.651C229.323 387.349 225.025 383.051 219.723 383.051C214.421 383.051 210.123 387.349 210.123 392.651C210.123 397.953 214.421 402.251 219.723 402.251Z" fill="#B9D4DB"/>
<path d="M170.969 228.121C179.486 228.121 186.389 221.217 186.389 212.701C186.389 204.185 179.486 197.281 170.969 197.281C162.453 197.281 155.55 204.185 155.55 212.701C155.55 221.217 162.453 228.121 170.969 228.121Z" fill="#B9D4DB"/>
<path d="M141.504 209.75C145.94 209.75 149.536 206.154 149.536 201.718C149.536 197.283 145.94 193.687 141.504 193.687C137.068 193.687 133.472 197.283 133.472 201.718C133.472 206.154 137.068 209.75 141.504 209.75Z" fill="#B9D4DB"/>
<path d="M148.882 179.048C151.44 179.048 153.515 176.974 153.515 174.415C153.515 171.857 151.44 169.782 148.882 169.782C146.323 169.782 144.248 171.857 144.248 174.415C144.248 176.974 146.323 179.048 148.882 179.048Z" fill="#B9D4DB"/>
<path d="M174.529 188.8C180.663 188.8 185.635 183.827 185.635 177.693C185.635 171.559 180.663 166.587 174.529 166.587C168.395 166.587 163.422 171.559 163.422 177.693C163.422 183.827 168.395 188.8 174.529 188.8Z" fill="#B9D4DB"/>
<path d="M438.988 153.337C447.504 153.337 454.407 146.433 454.407 137.917C454.407 129.401 447.504 122.497 438.988 122.497C430.471 122.497 423.568 129.401 423.568 137.917C423.568 146.433 430.471 153.337 438.988 153.337Z" fill="#B9D4DB"/>
<path d="M463.523 126.281C467.959 126.281 471.555 122.685 471.555 118.249C471.555 113.813 467.959 110.217 463.523 110.217C459.087 110.217 455.491 113.813 455.491 118.249C455.491 122.685 459.087 126.281 463.523 126.281Z" fill="#B9D4DB"/>
<path d="M494.205 169.275C498.045 169.275 501.157 166.163 501.157 162.324C501.157 158.484 498.045 155.372 494.205 155.372C490.366 155.372 487.254 158.484 487.254 162.324C487.254 166.163 490.366 169.275 494.205 169.275Z" fill="#B9D4DB"/>
<path d="M483.183 143.213C485.742 143.213 487.816 141.139 487.816 138.58C487.816 136.022 485.742 133.947 483.183 133.947C480.624 133.947 478.55 136.022 478.55 138.58C478.55 141.139 480.624 143.213 483.183 143.213Z" fill="#B9D4DB"/>
<path d="M467.22 170.026C473.354 170.026 478.327 165.054 478.327 158.92C478.327 152.786 473.354 147.813 467.22 147.813C461.086 147.813 456.114 152.786 456.114 158.92C456.114 165.054 461.086 170.026 467.22 170.026Z" fill="#B9D4DB"/>
</svg>
